<mxfile host="app.diagrams.net" agent="Mozilla/5.0 (X11; Ubuntu; Linux x86_64; rv:123.0) Gecko/20100101 Firefox/123.0" version="26.1.3">
  <diagram id="Ht1M8jgEwFfnCIfOTk4-" name="Page-1">
    <mxGraphModel dx="1378" dy="1574" grid="1" gridSize="10" guides="1" tooltips="1" connect="1" arrows="1" fold="1" page="1" pageScale="1" pageWidth="1169" pageHeight="827" math="0" shadow="0">
      <root>
        <mxCell id="0" />
        <mxCell id="1" parent="0" />
        <mxCell id="UEzPUAAOIrF-is8g5C7q-175" value="AWS Cloud" style="points=[[0,0],[0.25,0],[0.5,0],[0.75,0],[1,0],[1,0.25],[1,0.5],[1,0.75],[1,1],[0.75,1],[0.5,1],[0.25,1],[0,1],[0,0.75],[0,0.5],[0,0.25]];outlineConnect=0;gradientColor=none;html=1;whiteSpace=wrap;fontSize=12;fontStyle=0;shape=mxgraph.aws4.group;grIcon=mxgraph.aws4.group_aws_cloud_alt;strokeColor=#232F3E;fillColor=none;verticalAlign=top;align=left;spacingLeft=30;fontColor=#232F3E;dashed=0;labelBackgroundColor=#ffffff;container=1;pointerEvents=0;collapsible=0;recursiveResize=0;" parent="1" vertex="1">
          <mxGeometry x="219" y="-789.5" width="730" height="410" as="geometry" />
        </mxCell>
        <mxCell id="UpLP2Rx9WBwiuUU3cN9N-1" value="" style="outlineConnect=0;dashed=0;verticalLabelPosition=bottom;verticalAlign=top;align=center;html=1;shape=mxgraph.aws3.cloudfront;fillColor=#F58536;gradientColor=none;" vertex="1" parent="UEzPUAAOIrF-is8g5C7q-175">
          <mxGeometry x="199" y="40" width="76.5" height="93" as="geometry" />
        </mxCell>
        <mxCell id="UpLP2Rx9WBwiuUU3cN9N-5" value="" style="edgeStyle=orthogonalEdgeStyle;html=1;endArrow=none;elbow=vertical;startArrow=block;startFill=1;strokeColor=#545B64;rounded=0;strokeWidth=2;" edge="1" parent="UEzPUAAOIrF-is8g5C7q-175">
          <mxGeometry width="100" relative="1" as="geometry">
            <mxPoint x="291" y="86" as="sourcePoint" />
            <mxPoint x="391" y="86" as="targetPoint" />
          </mxGeometry>
        </mxCell>
        <mxCell id="UpLP2Rx9WBwiuUU3cN9N-7" value="" style="edgeStyle=orthogonalEdgeStyle;html=1;endArrow=none;elbow=vertical;startArrow=block;startFill=1;strokeColor=#545B64;rounded=0;strokeWidth=2;" edge="1" parent="UEzPUAAOIrF-is8g5C7q-175">
          <mxGeometry width="100" relative="1" as="geometry">
            <mxPoint x="111" y="86" as="sourcePoint" />
            <mxPoint x="181" y="86.5" as="targetPoint" />
          </mxGeometry>
        </mxCell>
        <mxCell id="UpLP2Rx9WBwiuUU3cN9N-8" value="&lt;div&gt;CloudFront&lt;/div&gt;" style="text;html=1;align=center;verticalAlign=middle;whiteSpace=wrap;rounded=0;" vertex="1" parent="UEzPUAAOIrF-is8g5C7q-175">
          <mxGeometry x="207.25" y="139.5" width="72.75" height="30" as="geometry" />
        </mxCell>
        <mxCell id="UpLP2Rx9WBwiuUU3cN9N-11" value="Actor" style="shape=umlActor;verticalLabelPosition=bottom;verticalAlign=top;html=1;outlineConnect=0;strokeWidth=2;" vertex="1" parent="UEzPUAAOIrF-is8g5C7q-175">
          <mxGeometry x="421" y="56.5" width="30" height="60" as="geometry" />
        </mxCell>
        <mxCell id="UEzPUAAOIrF-is8g5C7q-177" value="Amazon S3&lt;br&gt;Bucket&lt;br&gt;" style="outlineConnect=0;fontColor=#232F3E;gradientColor=none;fillColor=#277116;strokeColor=none;dashed=0;verticalLabelPosition=bottom;verticalAlign=top;align=center;html=1;fontSize=12;fontStyle=0;aspect=fixed;pointerEvents=1;shape=mxgraph.aws4.bucket;labelBackgroundColor=#ffffff;" parent="1" vertex="1">
          <mxGeometry x="249" y="-749.5" width="75" height="78" as="geometry" />
        </mxCell>
      </root>
    </mxGraphModel>
  </diagram>
</mxfile>
